<svg xmlns="http://www.w3.org/2000/svg" xmlns:xlink="http://www.w3.org/1999/xlink" width="500" zoomAndPan="magnify" viewBox="0 0 375 374.999991" height="500" preserveAspectRatio="xMidYMid meet" version="1.0"><defs><g/><clipPath id="423d3437fa"><path d="M 187.5 0 C 83.945312 0 0 83.945312 0 187.5 C 0 291.054688 83.945312 375 187.5 375 C 291.054688 375 375 291.054688 375 187.5 C 375 83.945312 291.054688 0 187.5 0 Z M 187.5 0 " clip-rule="nonzero"/></clipPath><radialGradient gradientTransform="matrix(1, 0, 0, 1, 0.0000045, 0)" gradientUnits="userSpaceOnUse" r="265.165028" cx="187.499995" id="fc70991466" cy="187.499995" fx="187.499995" fy="187.499995"><stop stop-opacity="1" stop-color="rgb(33.003235%, 42.158508%, 37.734985%)" offset="0"/><stop stop-opacity="1" stop-color="rgb(33.200073%, 42.457581%, 37.989807%)" offset="0.03125"/><stop stop-opacity="1" stop-color="rgb(33.383179%, 42.735291%, 38.227844%)" offset="0.0585938"/><stop stop-opacity="1" stop-color="rgb(33.566284%, 43.014526%, 38.465881%)" offset="0.0859375"/><stop stop-opacity="1" stop-color="rgb(33.74939%, 43.293762%, 38.703918%)" offset="0.113281"/><stop stop-opacity="1" stop-color="rgb(33.918762%, 43.553162%, 38.923645%)" offset="0.140625"/><stop stop-opacity="1" stop-color="rgb(34.075928%, 43.791199%, 39.128113%)" offset="0.164062"/><stop stop-opacity="1" stop-color="rgb(34.233093%, 44.030762%, 39.332581%)" offset="0.1875"/><stop stop-opacity="1" stop-color="rgb(34.390259%, 44.270325%, 39.535522%)" offset="0.210938"/><stop stop-opacity="1" stop-color="rgb(34.547424%, 44.508362%, 39.73999%)" offset="0.234375"/><stop stop-opacity="1" stop-color="rgb(34.692383%, 44.728088%, 39.926147%)" offset="0.257812"/><stop stop-opacity="1" stop-color="rgb(34.822083%, 44.927979%, 40.097046%)" offset="0.277344"/><stop stop-opacity="1" stop-color="rgb(34.953308%, 45.126343%, 40.266418%)" offset="0.296875"/><stop stop-opacity="1" stop-color="rgb(35.084534%, 45.326233%, 40.435791%)" offset="0.316406"/><stop stop-opacity="1" stop-color="rgb(35.215759%, 45.524597%, 40.606689%)" offset="0.335938"/><stop stop-opacity="1" stop-color="rgb(35.345459%, 45.724487%, 40.776062%)" offset="0.355469"/><stop stop-opacity="1" stop-color="rgb(35.476685%, 45.922852%, 40.94696%)" offset="0.375"/><stop stop-opacity="1" stop-color="rgb(35.65979%, 46.202087%, 41.184998%)" offset="0.394531"/><stop stop-opacity="1" stop-color="rgb(35.896301%, 46.560669%, 41.490173%)" offset="0.429688"/><stop stop-opacity="1" stop-color="rgb(36.117554%, 46.899414%, 41.778564%)" offset="0.464844"/><stop stop-opacity="1" stop-color="rgb(36.326599%, 47.218323%, 42.051697%)" offset="0.496094"/><stop stop-opacity="1" stop-color="rgb(36.523438%, 47.517395%, 42.306519%)" offset="0.527344"/><stop stop-opacity="1" stop-color="rgb(36.706543%, 47.796631%, 42.544556%)" offset="0.554688"/><stop stop-opacity="1" stop-color="rgb(36.875916%, 48.054504%, 42.764282%)" offset="0.582031"/><stop stop-opacity="1" stop-color="rgb(37.033081%, 48.294067%, 42.96875%)" offset="0.605469"/><stop stop-opacity="1" stop-color="rgb(37.17804%, 48.513794%, 43.154907%)" offset="0.628906"/><stop stop-opacity="1" stop-color="rgb(37.309265%, 48.712158%, 43.325806%)" offset="0.648438"/><stop stop-opacity="1" stop-color="rgb(37.440491%, 48.912048%, 43.495178%)" offset="0.667969"/><stop stop-opacity="1" stop-color="rgb(37.57019%, 49.110413%, 43.664551%)" offset="0.6875"/><stop stop-opacity="1" stop-color="rgb(37.753296%, 49.389648%, 43.902588%)" offset="0.707031"/><stop stop-opacity="1" stop-color="rgb(37.976074%, 49.728394%, 44.192505%)" offset="0.742188"/><stop stop-opacity="1" stop-color="rgb(38.172913%, 50.027466%, 44.447327%)" offset="0.773438"/><stop stop-opacity="1" stop-color="rgb(38.342285%, 50.286865%, 44.667053%)" offset="0.800781"/><stop stop-opacity="1" stop-color="rgb(38.487244%, 50.505066%, 44.854736%)" offset="0.824219"/><stop stop-opacity="1" stop-color="rgb(38.616943%, 50.704956%, 45.024109%)" offset="0.84375"/><stop stop-opacity="1" stop-color="rgb(38.787842%, 50.96283%, 45.245361%)" offset="0.863281"/><stop stop-opacity="1" stop-color="rgb(38.970947%, 51.242065%, 45.483398%)" offset="0.894531"/><stop stop-opacity="1" stop-color="rgb(39.11438%, 51.461792%, 45.669556%)" offset="0.917969"/><stop stop-opacity="1" stop-color="rgb(39.285278%, 51.721191%, 45.890808%)" offset="0.9375"/><stop stop-opacity="1" stop-color="rgb(39.494324%, 52.038574%, 46.162415%)" offset="0.96875"/><stop stop-opacity="1" stop-color="rgb(39.599609%, 52.198792%, 46.299744%)" offset="1"/></radialGradient></defs><g clip-path="url(#423d3437fa)"><rect x="-37.5" fill="url(#fc70991466)" width="450" y="-37.499999" height="449.999989"/></g><g fill="#ffffff" fill-opacity="1"><g transform="translate(97.148435, 305.60571)"><g><path d="M 3.703125 0 L 3.703125 -15.9375 L 26.3125 -15.9375 L 26.3125 -217.5625 L 3.703125 -217.5625 L 3.703125 -242.765625 L 99.703125 -242.765625 C 120.203125 -242.765625 137.988281 -237.078125 153.0625 -225.703125 C 168.632812 -213.597656 176.421875 -198.035156 176.421875 -179.015625 C 176.421875 -164.679688 172.585938 -152.078125 164.921875 -141.203125 C 161.460938 -136.265625 157.390625 -131.816406 152.703125 -127.859375 C 161.597656 -123.660156 169.378906 -117.976562 176.046875 -110.8125 C 187.410156 -98.457031 193.09375 -82.273438 193.09375 -62.265625 C 193.09375 -59.296875 192.90625 -56.390625 192.53125 -53.546875 C 192.164062 -50.710938 191.613281 -47.9375 190.875 -45.21875 C 190.132812 -42.5 189.269531 -39.90625 188.28125 -37.4375 C 187.289062 -34.96875 186.113281 -32.492188 184.75 -30.015625 C 183.394531 -27.546875 181.851562 -25.195312 180.125 -22.96875 C 178.394531 -20.75 176.476562 -18.585938 174.375 -16.484375 C 172.28125 -14.390625 170.117188 -12.476562 167.890625 -10.75 C 151.585938 2.59375 131.945312 9.265625 108.96875 9.265625 L 3.703125 9.265625 Z M 107.109375 -109.703125 L 75.234375 -109.703125 L 75.234375 -19.640625 L 107.109375 -19.640625 C 118.972656 -19.640625 128.113281 -23.84375 134.53125 -32.25 C 141.457031 -41.382812 144.921875 -52.253906 144.921875 -64.859375 C 144.921875 -71.285156 144.050781 -77.15625 142.3125 -82.46875 C 140.582031 -87.78125 137.988281 -92.660156 134.53125 -97.109375 C 131.070312 -101.304688 127.179688 -104.453125 122.859375 -106.546875 C 118.535156 -108.648438 113.285156 -109.703125 107.109375 -109.703125 Z M 91.921875 -213.84375 L 75.234375 -213.84375 L 75.234375 -137.5 L 94.140625 -137.5 C 98.335938 -137.5 101.976562 -137.929688 105.0625 -138.796875 C 108.15625 -139.660156 110.875 -140.894531 113.21875 -142.5 C 115.570312 -144.113281 117.613281 -146.15625 119.34375 -148.625 C 122.300781 -152.570312 124.519531 -156.953125 126 -161.765625 C 127.488281 -166.585938 128.234375 -171.96875 128.234375 -177.90625 C 128.234375 -188.769531 125.269531 -197.539062 119.34375 -204.21875 C 113.90625 -210.632812 104.765625 -213.84375 91.921875 -213.84375 Z M 91.921875 -213.84375 "/></g></g></g></svg>